<svg width="100" height="33" viewBox="0 0 100 33" fill="none" xmlns="http://www.w3.org/2000/svg">
<g clip-path="url(#clip0_206_138)">
<path d="M10.1033 8.20801C11.8376 8.20801 13.7964 8.60047 15.4219 9.23222V12.8281C13.742 12.0656 11.9532 11.5678 10.1033 11.5678C6.66187 11.5678 3.80532 13.7982 3.80532 17.8694C3.80532 21.9408 6.65847 24.1711 10.1033 24.1711C11.9499 24.1711 13.742 23.6734 15.4219 22.9108V26.5067C13.7998 27.1385 11.841 27.5309 10.1033 27.5309C3.86313 27.5341 0 23.1213 0 17.8726C0 12.6207 3.86313 8.20801 10.1033 8.20801Z" fill="#172B4D"/>
<path d="M36.0329 8.229V27.3732H32.3941V11.4563H26.8818C26.4328 23.0824 24.8958 27.0741 19.4921 27.9516L18.4856 25.0234C22.5697 24.259 22.9914 19.4995 23.4097 8.229H36.0329Z" fill="#172B4D"/>
<path d="M40.0855 3.2605V32.5253L58.6021 29.2647V0L40.0855 3.2605ZM52.1408 3.36353C53.1474 3.36353 53.9329 4.15789 53.9329 5.08519C53.9329 5.98922 53.1508 6.75366 52.1408 6.75366C51.2159 6.75366 50.4065 5.98922 50.4065 5.08519C50.4065 4.15456 51.2192 3.36353 52.1408 3.36353ZM46.6284 3.36353C47.6078 3.36353 48.3899 4.15789 48.3899 5.08519C48.3899 5.98922 47.6078 6.75366 46.6284 6.75366C45.7034 6.75366 44.8941 5.98922 44.8941 5.08519C44.8941 4.15456 45.7068 3.36353 46.6284 3.36353ZM55.0246 27.3769H43.663V8.23268H54.7151V11.46H47.3017V15.8903H54.0724V19.1177H47.3017V24.1496H55.0246V27.3769Z" fill="#12A3FF"/>
<path d="M66.023 27.3763H62.3843V8.23199H68.7945C72.2632 8.23199 75.5653 10.2826 75.5653 14.2777C75.5653 18.4622 72.2904 20.35 68.8217 20.35H66.023V27.3763ZM66.023 17.475H68.0668C70.5016 17.475 71.7599 16.325 71.7599 14.2744C71.7599 12.2503 70.5016 11.1834 68.0668 11.1834H66.023V17.475Z" fill="#172B4D"/>
<path d="M88.9817 23.5474L82.8537 13.0712V27.3763H79.215V8.23199H83.9147L89.4 17.3687L94.8852 8.23199H99.5847V27.3763H95.9466V13.0712L89.8182 23.5474H88.9817Z" fill="#172B4D"/>
</g>
<defs>
<clipPath id="clip0_206_138">
<rect width="100" height="33" fill="white"/>
</clipPath>
</defs>
</svg>
